<svg height="352" viewBox="0 0 626 352" width="626" xmlns="http://www.w3.org/2000/svg"><g fill="none" fill-rule="evenodd"><path d="m0 352h626v-352h-626z" fill="none"/><path d="m239.357 262.6685-91.23-52.672c-4-2.309-4-8.083 0-10.392l98.394-56.809c4-2.309 4-8.083 0-10.392l-107.394-62.004" stroke="#e5e6e8" stroke-width="2"/><path d="m122.4986 329.6006 57.508-33.206c3.999-2.31 3.999-8.083-.001-10.392l-31.879-18.406c-4-2.309-4-8.083 0-10.392l314.555-181.609c4-2.309 4-8.083 0-10.392l-15.488-8.942c-4.008-2.314-3.998-8.103.018-10.403l40.941-23.447" stroke="#ff6f00" stroke-width="2"/><path d="m471.6876 300.8042-24.262-14.007c-4-2.31-4-8.083 0-10.393l98.394-56.808c4-2.309 4-8.083 0-10.392l-124.022-71.605" stroke="#e5e6e8" stroke-width="2"/><path d="m421.7979 272.0005 124.022-71.604c4-2.31 4-8.083 0-10.393l-98.393-56.807c-4-2.309-4-8.083.001-10.392l24.26-14.001" stroke="#425066" stroke-width="2"/><path d="m255.4996 22.4116-90.746 52.392c-4 2.309-4 8.083 0 10.392l7.091 4.094m-65.8826 96.3071-40.886-23.6c-4.001-2.31-4.001-8.084 0-10.393l40.886-23.601" stroke="#e5e6e8" stroke-width="2"/><path d="m105.962 166.4033-40.888-23.607c-4-2.31-4-8.083.001-10.393l40.886-23.6" stroke="#e5e6e8" stroke-width="2"/><path d="m604.668 89.5796-107.398 62.014c-4.004 2.312-3.999 8.092.009 10.397l7.661 4.407m-365.8076-57.5944 128.009-73.913c3.741-2.16 8.356-2.142 12.081.047l51.01 29.982c3.964 2.33 3.942 8.07-.04 10.369l-65.703 37.933c-3.998 2.309-4.001 8.078-.005 10.39l31.856 18.435c3.996 2.312 3.993 8.081-.004 10.389l-98.327 56.769c-4 2.309-4 8.083 0 10.392l57.49 33.192" stroke="#425066" stroke-width="2"/><path d="m438.4258 320.0005-27.249-15.738c-3.712-2.144-8.288-2.145-12.001-.001l-37.89 21.876c-3.712 2.143-8.286 2.143-11.999 0l-43.889-25.333-24.252-14.008c-4-2.309-3.999-8.082 0-10.391l181.531-104.812c4-2.309 4-8.083 0-10.392l-7.624-4.402" stroke="#e5e6e8" stroke-width="2"/><path d="m109.962 128.0029c0-2.209-1.791-4-4-4s-4 1.791-4 4 1.791 4 4 4 4-1.791 4-4" fill="#e5e6e8"/><path d="m109.962 128.0029c0-2.209-1.791-4-4-4s-4 1.791-4 4 1.791 4 4 4 4-1.791 4-4z" stroke="#e5e6e8" stroke-width="2"/><path d="m109.961 108.8032c0-2.209-1.791-4-4-4s-4 1.791-4 4 1.791 4 4 4 4-1.791 4-4" fill="#fff"/><path d="m109.961 108.8032c0-2.209-1.791-4-4-4s-4 1.791-4 4 1.791 4 4 4 4-1.791 4-4z" stroke="#e5e6e8" stroke-width="2"/><path d="m109.962 166.4033c0-2.209-1.791-4-4-4s-4 1.791-4 4 1.791 4 4 4 4-1.791 4-4" fill="#fff"/><path d="m109.962 166.4033c0-2.209-1.791-4-4-4s-4 1.791-4 4 1.791 4 4 4 4-1.791 4-4z" stroke="#e5e6e8" stroke-width="2"/><path d="m109.962 185.5967c0-2.209-1.791-4-4-4s-4 1.791-4 4 1.791 4 4 4 4-1.791 4-4" fill="#e5e6e8"/><path d="m109.962 185.5967c0-2.209-1.791-4-4-4s-4 1.791-4 4 1.791 4 4 4 4-1.791 4-4z" stroke="#e5e6e8" stroke-width="2"/><path d="m259.4996 252.7881c0-2.209-1.791-4-4-4s-4 1.791-4 4 1.791 4 4 4 4-1.791 4-4" fill="#425066"/><path d="m259.4996 252.7881c0-2.209-1.791-4-4-4s-4 1.791-4 4 1.791 4 4 4 4-1.791 4-4z" stroke="#425066" stroke-width="2"/><path d="m243.357 262.6685c0-2.209-1.791-4-4-4s-4 1.791-4 4 1.791 4 4 4 4-1.791 4-4" fill="#fff"/><path d="m243.357 262.6685c0-2.209-1.791-4-4-4s-4 1.791-4 4 1.791 4 4 4 4-1.791 4-4z" stroke="#e5e6e8" stroke-width="2"/><path d="m143.1324 108.8032c0-2.209-1.791-4-4-4s-4 1.791-4 4 1.791 4 4 4 4-1.791 4-4" fill="#fff"/><path d="m143.1324 108.8032c0-2.209-1.791-4-4-4s-4 1.791-4 4 1.791 4 4 4 4-1.791 4-4z" stroke="#425066" stroke-width="2"/><path d="m259.4996 22.4116c0-2.209-1.791-4-4-4s-4 1.791-4 4 1.791 4 4 4 4-1.791 4-4" fill="#e5e6e8"/><path d="m259.4996 22.4116c0-2.209-1.791-4-4-4s-4 1.791-4 4 1.791 4 4 4 4-1.791 4-4z" stroke="#e5e6e8" stroke-width="2"/><path d="m475.6876 108.8032c0-2.209-1.791-4-4-4s-4 1.791-4 4 1.791 4 4 4 4-1.791 4-4" fill="#425066"/><path d="m475.6876 108.8032c0-2.209-1.791-4-4-4s-4 1.791-4 4 1.791 4 4 4 4-1.791 4-4z" stroke="#425066" stroke-width="2"/><path d="m425.7979 272.0005c0-2.209-1.791-4-4-4s-4 1.791-4 4 1.791 4 4 4 4-1.791 4-4" fill="#fff"/><path d="m425.7979 272.0005c0-2.209-1.791-4-4-4s-4 1.791-4 4 1.791 4 4 4 4-1.791 4-4z" stroke="#425066" stroke-width="2"/><path d="m475.6876 300.8042c0-2.209-1.791-4-4-4s-4 1.791-4 4 1.791 4 4 4 4-1.791 4-4" fill="#fff"/><path d="m475.6876 300.8042c0-2.209-1.791-4-4-4s-4 1.791-4 4 1.791 4 4 4 4-1.791 4-4z" stroke="#e5e6e8" stroke-width="2"/><path d="m442.4258 320.0005c0-2.209-1.791-4-4-4s-4 1.791-4 4 1.791 4 4 4 4-1.791 4-4" fill="#e5e6e8"/><path d="m442.4258 320.0005c0-2.209-1.791-4-4-4s-4 1.791-4 4 1.791 4 4 4 4-1.791 4-4z" stroke="#e5e6e8" stroke-width="2"/><path d="m126.4986 329.6006c0-2.209-1.791-4-4-4s-4 1.791-4 4 1.791 4 4 4 4-1.791 4-4" fill="#fff"/><path d="m126.4986 329.6006c0-2.209-1.791-4-4-4s-4 1.791-4 4 1.791 4 4 4 4-1.791 4-4z" stroke="#ff6f00" stroke-width="2"/><path d="m143.1265 70.3994c0-2.209-1.791-4-4-4s-4 1.791-4 4 1.791 4 4 4 4-1.791 4-4" fill="#fff"/><path d="m143.1265 70.3994c0-2.209-1.791-4-4-4s-4 1.791-4 4 1.791 4 4 4 4-1.791 4-4z" stroke="#e5e6e8" stroke-width="2"/><path d="m608.668 89.5796c0-2.209-1.791-4-4-4s-4 1.791-4 4 1.791 4 4 4 4-1.791 4-4" fill="#fff"/><path d="m608.668 89.5796c0-2.209-1.791-4-4-4s-4 1.791-4 4 1.791 4 4 4 4-1.791 4-4z" stroke="#425066" stroke-width="2"/><path d="m492.1529 22.4116c0-2.209-1.791-4-4-4s-4 1.791-4 4 1.791 4 4 4 4-1.791 4-4" fill="#ff6f00"/><path d="m492.1529 22.4116c0-2.209-1.791-4-4-4s-4 1.791-4 4 1.791 4 4 4 4-1.791 4-4z" stroke="#ff6f00" stroke-width="2"/><path d="m425.7979 137.5996c0-2.209-1.791-4-4-4s-4 1.791-4 4 1.791 4 4 4 4-1.791 4-4" fill="#e5e6e8"/><path d="m425.7979 137.5996c0-2.209-1.791-4-4-4s-4 1.791-4 4 1.791 4 4 4 4-1.791 4-4z" stroke="#e5e6e8" stroke-width="2"/><path d="m131.1324 162.1792 223.467 129.019 122.689-70.834-223.467-129.019z" fill="#425066" fill-opacity=".05"/><path d="m338.4683 260.8257 16.131 10.119 122.689-70.834v-10.119l-22.442 8.561z" fill="#b8baba"/><path d="m450.9981 184.9321v10.116l-197.177-113.84-12.893-6.768 12.893-13.467z" fill="#fff"/><path d="m354.6011 260.8267v10.119l-223.469-129.019v-10.12l14.127 2.349 212.249 119.355z" fill="#425066"/><path d="m253.8214 60.9727-122.689 70.834 17.527 10.12 33.958-19.606c1.21-.699 3.172-.699 4.382 0 3.63 2.095 9.515 2.095 13.145 0l19.719-11.385c1.81-1.045 2.717-2.414 2.721-3.785h.002v-7.906l31.235-18.034z" fill="#fff"/><path d="m450.9981 184.9321-105.162 60.715-197.177-113.84 33.959-19.606c1.21-.699 3.172-.699 4.381 0 3.63 2.096 9.516 2.096 13.145 0l19.718-11.384c3.631-2.096 3.631-5.494.001-7.59-1.21-.698-1.21-1.831 0-2.529l33.958-19.606zm-319.866-53.125 223.468 129.019 122.688-70.834-223.467-129.019z" fill="#fff"/><path d="m417.3331 211.958-24.687 14.253c-1.047.605-.916 1.662.294 2.36 1.21.699 3.04.775 4.088.169l24.687-14.252c1.048-.605.916-1.662-.294-2.361-1.21-.698-3.04-.774-4.088-.169m-220.4746-105.4487c1.815 1.048 1.815 2.747 0 3.794-1.815 1.048-4.757 1.048-6.573 0-1.815-1.047-1.815-2.746.001-3.794 1.815-1.048 4.757-1.048 6.572 0m19.7177-11.3843c1.815 1.048 1.815 2.747 0 3.795s-4.757 1.048-6.572 0c-1.816-1.048-1.815-2.747 0-3.795s4.757-1.048 6.572 0" fill="#e5e6e8"/><path d="m450.9981 184.9321-105.162 60.715-197.177-113.84 33.959-19.606c1.21-.699 3.172-.699 4.381 0 3.63 2.096 9.516 2.096 13.145 0l19.718-11.384c3.631-2.096 3.631-5.494.001-7.59-1.21-.698-1.21-1.831 0-2.529l33.958-19.606z" fill="#e5e6e8"/><path d="m328.3096 235.5278 17.527 10.119 105.161-60.715-17.526-10.119z" fill="#e5e6e8"/><path d="m355.5587 175.5244-56.962 32.887 7.668 4.427 56.962-32.887zm42.8588-10.8306-87.635 50.596 4.382 2.529 87.634-50.595zm8.7632 5.0596-87.635 50.596 4.382 2.529 87.635-50.595zm-74.4897 58.1851 78.981-45.599-4.382-2.53-78.98 45.599zm-139.1192-80.3203 27.386-15.811-17.527-10.119-27.386 15.811z" fill="#fff"/><path d="m263.6797 102.082 13.145-7.589-4.382-2.53-13.145 7.589zm-13.145-7.5893 4.381 2.53 13.146-7.59-4.382-2.529z" fill="#e5e6e8"/><path d="m202.3355 152.6777 87.634 50.596 87.635-50.596-87.634-50.596z" fill="#fff"/><g stroke-width="2"><path d="m251.4996 119.7847c1.703-.983 3.49-1.889 5.347-2.716" stroke="#ff6f00"/><path d="m264.4468 114.2261c17.509-5.418 39.02-4.982 55.885 1.306" stroke="#ff6f00" stroke-dasharray="12.178 8.118"/><path d="m324.0953 117.0684c1.857.828 3.644 1.733 5.346 2.716m-77.9417 45.0003c-1.822-1.052-3.49-2.159-5.003-3.313" stroke="#ff6f00"/><path d="m240.9151 156.23c-8.21-9.724-7.324-21.361 2.656-30.672" stroke="#ff6f00" stroke-dasharray="11.498 7.665"/><path d="m246.4966 123.0967c1.513-1.153 3.181-2.26 5.003-3.312m77.9419 44.9995c-1.703.983-3.489 1.889-5.347 2.716" stroke="#ff6f00"/><path d="m316.4942 170.3428c-17.509 5.418-39.02 4.983-55.885-1.306" stroke="#ff6f00" stroke-dasharray="12.178 8.118"/><path d="m256.8458 167.5005c-1.857-.828-3.644-1.733-5.346-2.716m77.9417-44.9998c1.822 1.052 3.49 2.159 5.003 3.312" stroke="#ff6f00"/><path d="m340.0259 128.3394c8.21 9.723 7.324 21.361-2.656 30.671" stroke="#ff6f00" stroke-dasharray="11.498 7.665"/><path d="m334.4444 161.4722c-1.513 1.153-3.181 2.26-5.003 3.312" stroke="#ff6f00"/></g><path d="m300.4708 142.2847c0-5.523-4.478-10-10-10-5.523 0-10 4.477-10 10 0 5.522 4.477 10 10 10 5.522 0 10-4.478 10-10" fill="#ff6f00"/></g></svg>